<mxfile host="app.diagrams.net" modified="2022-01-12T07:19:04.302Z" agent="5.0 (Macintosh; Intel Mac OS X 10_15_7) AppleWebKit/537.36 (KHTML, like Gecko) Chrome/96.0.4664.110 Safari/537.36" etag="ejyzvwGK6r3tFdU2LHkF" version="16.2.1" type="github">
  <diagram id="zJTWsawjsLKyLAAW6Hs-" name="第 1 页">
    <mxGraphModel dx="1032" dy="703" grid="0" gridSize="10" guides="1" tooltips="1" connect="1" arrows="1" fold="1" page="1" pageScale="1" pageWidth="1169" pageHeight="1654" background="#ffffff" math="0" shadow="0">
      <root>
        <mxCell id="0" />
        <mxCell id="1" parent="0" />
        <mxCell id="cuTJhUoeL6aTApRvMi6O-4" value="" style="endArrow=none;dashed=1;html=1;fontFamily=京东朗正体;" edge="1" parent="1">
          <mxGeometry width="50" height="50" relative="1" as="geometry">
            <mxPoint y="220" as="sourcePoint" />
            <mxPoint x="919" y="220" as="targetPoint" />
          </mxGeometry>
        </mxCell>
        <mxCell id="cuTJhUoeL6aTApRvMi6O-5" value="" style="endArrow=none;dashed=1;html=1;fontFamily=京东朗正体;" edge="1" parent="1">
          <mxGeometry width="50" height="50" relative="1" as="geometry">
            <mxPoint y="750" as="sourcePoint" />
            <mxPoint x="920" y="750" as="targetPoint" />
          </mxGeometry>
        </mxCell>
        <mxCell id="cuTJhUoeL6aTApRvMi6O-7" value="后台服务（Java）" style="whiteSpace=wrap;html=1;aspect=fixed;fontFamily=京东朗正体;" vertex="1" parent="1">
          <mxGeometry x="206.5" y="778.26" width="200" height="43.48" as="geometry" />
        </mxCell>
        <mxCell id="cuTJhUoeL6aTApRvMi6O-8" value="TF服务（Python）" style="whiteSpace=wrap;html=1;fontFamily=京东朗正体;" vertex="1" parent="1">
          <mxGeometry x="593.88" y="780" width="200" height="40" as="geometry" />
        </mxCell>
        <mxCell id="cuTJhUoeL6aTApRvMi6O-9" value="" style="endArrow=none;dashed=1;html=1;fontFamily=京东朗正体;" edge="1" parent="1">
          <mxGeometry width="50" height="50" relative="1" as="geometry">
            <mxPoint y="840" as="sourcePoint" />
            <mxPoint x="920" y="840" as="targetPoint" />
          </mxGeometry>
        </mxCell>
        <mxCell id="cuTJhUoeL6aTApRvMi6O-12" value="对象存储" style="whiteSpace=wrap;html=1;fontFamily=京东朗正体;" vertex="1" parent="1">
          <mxGeometry x="433" y="870" width="100" height="40" as="geometry" />
        </mxCell>
        <mxCell id="cuTJhUoeL6aTApRvMi6O-14" value="&lt;font style=&quot;font-size: 16px&quot;&gt;存储&lt;/font&gt;" style="text;html=1;align=center;verticalAlign=middle;resizable=0;points=[];autosize=1;strokeColor=none;fillColor=none;arcSize=18;fontFamily=京东朗正体;" vertex="1" parent="1">
          <mxGeometry x="15" y="880" width="50" height="20" as="geometry" />
        </mxCell>
        <mxCell id="cuTJhUoeL6aTApRvMi6O-16" value="MySQL" style="whiteSpace=wrap;html=1;fontFamily=京东朗正体;" vertex="1" parent="1">
          <mxGeometry x="560" y="870" width="100" height="40" as="geometry" />
        </mxCell>
        <mxCell id="cuTJhUoeL6aTApRvMi6O-17" value="Zookeeper" style="whiteSpace=wrap;html=1;fontFamily=京东朗正体;" vertex="1" parent="1">
          <mxGeometry x="693.87" y="870" width="100" height="40" as="geometry" />
        </mxCell>
        <mxCell id="cuTJhUoeL6aTApRvMi6O-18" value="Hbase" style="whiteSpace=wrap;html=1;fontFamily=京东朗正体;" vertex="1" parent="1">
          <mxGeometry x="302.37" y="870" width="100" height="40" as="geometry" />
        </mxCell>
        <mxCell id="cuTJhUoeL6aTApRvMi6O-20" value="&lt;span style=&quot;font-size: 16px&quot;&gt;服务端&lt;/span&gt;" style="text;html=1;align=center;verticalAlign=middle;resizable=0;points=[];autosize=1;strokeColor=none;fillColor=none;arcSize=18;fontFamily=京东朗正体;" vertex="1" parent="1">
          <mxGeometry x="10" y="790" width="60" height="20" as="geometry" />
        </mxCell>
        <mxCell id="cuTJhUoeL6aTApRvMi6O-22" value="&lt;span&gt;ElastIcsearch&lt;/span&gt;" style="whiteSpace=wrap;html=1;fontFamily=京东朗正体;fontStyle=0" vertex="1" parent="1">
          <mxGeometry x="164" y="870" width="100" height="40" as="geometry" />
        </mxCell>
        <mxCell id="cuTJhUoeL6aTApRvMi6O-24" value="Redis" style="whiteSpace=wrap;html=1;fontFamily=京东朗正体;" vertex="1" parent="1">
          <mxGeometry x="816.87" y="870" width="100" height="40" as="geometry" />
        </mxCell>
        <mxCell id="cuTJhUoeL6aTApRvMi6O-25" value="&lt;span style=&quot;font-size: 16px&quot;&gt;用户&lt;/span&gt;" style="text;html=1;align=center;verticalAlign=middle;resizable=0;points=[];autosize=1;strokeColor=none;fillColor=none;arcSize=18;fontFamily=京东朗正体;" vertex="1" parent="1">
          <mxGeometry x="10" y="180" width="50" height="20" as="geometry" />
        </mxCell>
        <mxCell id="cuTJhUoeL6aTApRvMi6O-26" value="&lt;span style=&quot;font-size: 16px&quot;&gt;前端&lt;/span&gt;" style="text;html=1;align=center;verticalAlign=middle;resizable=0;points=[];autosize=1;strokeColor=none;fillColor=none;arcSize=18;fontFamily=京东朗正体;" vertex="1" parent="1">
          <mxGeometry x="10" y="445" width="50" height="20" as="geometry" />
        </mxCell>
        <mxCell id="cuTJhUoeL6aTApRvMi6O-27" value="" style="endArrow=none;dashed=1;html=1;fontFamily=京东朗正体;" edge="1" parent="1">
          <mxGeometry width="50" height="50" relative="1" as="geometry">
            <mxPoint y="670" as="sourcePoint" />
            <mxPoint x="920" y="670" as="targetPoint" />
          </mxGeometry>
        </mxCell>
        <mxCell id="cuTJhUoeL6aTApRvMi6O-28" value="Nginx集群" style="whiteSpace=wrap;html=1;fontFamily=京东朗正体;" vertex="1" parent="1">
          <mxGeometry x="180" y="690" width="650" height="40" as="geometry" />
        </mxCell>
        <mxCell id="cuTJhUoeL6aTApRvMi6O-32" value="&lt;p style=&quot;margin-top: 0pt ; margin-bottom: 0pt ; margin-left: 0in ; text-align: left ; direction: ltr ; unicode-bidi: embed ; word-break: normal&quot;&gt;&lt;span style=&quot;font-size: 13.6pt ; color: #cf212d ; font-weight: bold&quot;&gt;京东开发人员、测试、产品、接入业务方&lt;/span&gt;&lt;/p&gt;" style="text;whiteSpace=wrap;html=1;fontSize=12;fontFamily=京东朗正体;fontColor=default;" vertex="1" parent="1">
          <mxGeometry x="340.75" y="175" width="328.5" height="30" as="geometry" />
        </mxCell>
        <mxCell id="cuTJhUoeL6aTApRvMi6O-40" style="edgeStyle=orthogonalEdgeStyle;orthogonalLoop=1;jettySize=auto;html=1;exitX=1;exitY=0.5;exitDx=0;exitDy=0;fontFamily=京东朗正体;fontSize=12;fontColor=default;" edge="1" parent="1" source="cuTJhUoeL6aTApRvMi6O-36" target="cuTJhUoeL6aTApRvMi6O-37">
          <mxGeometry relative="1" as="geometry" />
        </mxCell>
        <mxCell id="cuTJhUoeL6aTApRvMi6O-36" value="mPaaS控制中台" style="whiteSpace=wrap;html=1;fontFamily=京东朗正体;" vertex="1" parent="1">
          <mxGeometry x="176" y="250" width="183" height="40" as="geometry" />
        </mxCell>
        <mxCell id="cuTJhUoeL6aTApRvMi6O-37" value="&amp;nbsp; &amp;nbsp;应用发布" style="whiteSpace=wrap;html=1;fontFamily=京东朗正体;" vertex="1" parent="1">
          <mxGeometry x="564" y="250" width="183" height="40" as="geometry" />
        </mxCell>
        <mxCell id="cuTJhUoeL6aTApRvMi6O-41" value="&lt;span style=&quot;color: rgb(32 , 33 , 36) ; font-family: &amp;#34;menlo&amp;#34; , monospace ; text-align: left ; background-color: rgb(255 , 255 , 255)&quot;&gt;&lt;font style=&quot;font-size: 14px&quot;&gt;iframe&lt;/font&gt;&lt;/span&gt;" style="whiteSpace=wrap;html=1;fontFamily=京东朗正体;fontSize=12;fontColor=default;fillColor=none;gradientColor=none;strokeColor=none;" vertex="1" parent="1">
          <mxGeometry x="413" y="230" width="120" height="60" as="geometry" />
        </mxCell>
        <mxCell id="cuTJhUoeL6aTApRvMi6O-57" value="" style="whiteSpace=wrap;html=1;fontFamily=京东朗正体;fontSize=14;fontColor=default;fillColor=none;gradientColor=none;" vertex="1" parent="1">
          <mxGeometry x="763.87" y="330" width="153" height="230" as="geometry" />
        </mxCell>
        <mxCell id="cuTJhUoeL6aTApRvMi6O-59" value="Vue Router" style="whiteSpace=wrap;html=1;fontFamily=京东朗正体;fontSize=14;fontColor=default;fillColor=none;gradientColor=none;strokeColor=none;" vertex="1" parent="1">
          <mxGeometry x="575.5" y="330" width="130" height="30" as="geometry" />
        </mxCell>
        <mxCell id="cuTJhUoeL6aTApRvMi6O-60" value="Vuex 状态管理" style="whiteSpace=wrap;html=1;fontFamily=京东朗正体;fontSize=14;fontColor=default;fillColor=none;gradientColor=none;strokeColor=none;" vertex="1" parent="1">
          <mxGeometry x="770.5" y="330" width="136.37" height="30" as="geometry" />
        </mxCell>
        <mxCell id="cuTJhUoeL6aTApRvMi6O-61" value="Actions" style="whiteSpace=wrap;html=1;fontFamily=京东朗正体;fontSize=12;fontColor=default;fillColor=none;gradientColor=none;" vertex="1" parent="1">
          <mxGeometry x="790.37" y="380" width="100" height="30" as="geometry" />
        </mxCell>
        <mxCell id="cuTJhUoeL6aTApRvMi6O-62" value="View" style="whiteSpace=wrap;html=1;fontFamily=京东朗正体;fontSize=12;fontColor=default;fillColor=none;gradientColor=none;" vertex="1" parent="1">
          <mxGeometry x="790.37" y="440" width="100" height="30" as="geometry" />
        </mxCell>
        <mxCell id="cuTJhUoeL6aTApRvMi6O-63" value="State" style="whiteSpace=wrap;html=1;fontFamily=京东朗正体;fontSize=12;fontColor=default;fillColor=none;gradientColor=none;" vertex="1" parent="1">
          <mxGeometry x="790.37" y="500" width="100" height="30" as="geometry" />
        </mxCell>
        <mxCell id="cuTJhUoeL6aTApRvMi6O-65" value="路由配置" style="whiteSpace=wrap;html=1;fontFamily=京东朗正体;fontSize=12;fontColor=default;fillColor=none;gradientColor=none;" vertex="1" parent="1">
          <mxGeometry x="593.88" y="370" width="100" height="30" as="geometry" />
        </mxCell>
        <mxCell id="cuTJhUoeL6aTApRvMi6O-66" value="路由地址" style="whiteSpace=wrap;html=1;fontFamily=京东朗正体;fontSize=12;fontColor=default;fillColor=none;gradientColor=none;" vertex="1" parent="1">
          <mxGeometry x="593.87" y="420" width="100" height="30" as="geometry" />
        </mxCell>
        <mxCell id="cuTJhUoeL6aTApRvMi6O-70" value="单页面应用" style="whiteSpace=wrap;html=1;fontFamily=京东朗正体;fontSize=12;fontColor=default;fillColor=none;gradientColor=none;" vertex="1" parent="1">
          <mxGeometry x="593.87" y="520" width="100" height="30" as="geometry" />
        </mxCell>
        <mxCell id="cuTJhUoeL6aTApRvMi6O-71" value="&lt;span style=&quot;font-size: 16px&quot;&gt;工程化&lt;/span&gt;" style="text;html=1;align=center;verticalAlign=middle;resizable=0;points=[];autosize=1;strokeColor=none;fillColor=none;arcSize=18;fontFamily=京东朗正体;" vertex="1" parent="1">
          <mxGeometry x="74" y="610" width="60" height="20" as="geometry" />
        </mxCell>
        <mxCell id="cuTJhUoeL6aTApRvMi6O-83" value="&lt;span style=&quot;font-size: 16px&quot;&gt;页面容器&lt;/span&gt;" style="text;html=1;align=center;verticalAlign=middle;resizable=0;points=[];autosize=1;strokeColor=none;fillColor=none;arcSize=18;fontFamily=京东朗正体;" vertex="1" parent="1">
          <mxGeometry x="64" y="360" width="80" height="20" as="geometry" />
        </mxCell>
        <mxCell id="cuTJhUoeL6aTApRvMi6O-97" value="" style="whiteSpace=wrap;html=1;fontFamily=京东朗正体;fontSize=14;fontColor=default;fillColor=none;gradientColor=none;" vertex="1" parent="1">
          <mxGeometry x="564" y="330" width="153" height="230" as="geometry" />
        </mxCell>
        <mxCell id="cuTJhUoeL6aTApRvMi6O-106" value="路由守卫" style="whiteSpace=wrap;html=1;fontFamily=京东朗正体;fontSize=12;fontColor=default;fillColor=none;gradientColor=none;" vertex="1" parent="1">
          <mxGeometry x="593.8699999999999" y="470" width="100" height="30" as="geometry" />
        </mxCell>
        <mxCell id="cuTJhUoeL6aTApRvMi6O-107" value="&lt;span&gt;Vue Component&lt;/span&gt;" style="whiteSpace=wrap;html=1;fontFamily=京东朗正体;fontSize=14;fontColor=default;fillColor=none;gradientColor=none;strokeColor=none;" vertex="1" parent="1">
          <mxGeometry x="384" y="330" width="130" height="30" as="geometry" />
        </mxCell>
        <mxCell id="cuTJhUoeL6aTApRvMi6O-108" value="基础组件" style="whiteSpace=wrap;html=1;fontFamily=京东朗正体;fontSize=12;fontColor=default;fillColor=none;gradientColor=none;" vertex="1" parent="1">
          <mxGeometry x="402.38" y="370" width="100" height="30" as="geometry" />
        </mxCell>
        <mxCell id="cuTJhUoeL6aTApRvMi6O-109" value="业务组件" style="whiteSpace=wrap;html=1;fontFamily=京东朗正体;fontSize=12;fontColor=default;fillColor=none;gradientColor=none;" vertex="1" parent="1">
          <mxGeometry x="402.37" y="420" width="100" height="30" as="geometry" />
        </mxCell>
        <mxCell id="cuTJhUoeL6aTApRvMi6O-110" value="......" style="whiteSpace=wrap;html=1;fontFamily=京东朗正体;fontSize=12;fontColor=default;fillColor=none;gradientColor=none;" vertex="1" parent="1">
          <mxGeometry x="402.37" y="520" width="100" height="30" as="geometry" />
        </mxCell>
        <mxCell id="cuTJhUoeL6aTApRvMi6O-111" value="" style="whiteSpace=wrap;html=1;fontFamily=京东朗正体;fontSize=14;fontColor=default;fillColor=none;gradientColor=none;direction=west;" vertex="1" parent="1">
          <mxGeometry x="372.5" y="330" width="153" height="230" as="geometry" />
        </mxCell>
        <mxCell id="cuTJhUoeL6aTApRvMi6O-112" value="逻辑组件" style="whiteSpace=wrap;html=1;fontFamily=京东朗正体;fontSize=12;fontColor=default;fillColor=none;gradientColor=none;" vertex="1" parent="1">
          <mxGeometry x="402.3699999999999" y="470" width="100" height="30" as="geometry" />
        </mxCell>
        <mxCell id="cuTJhUoeL6aTApRvMi6O-113" value="" style="whiteSpace=wrap;html=1;fontFamily=京东朗正体;fontSize=14;fontColor=default;fillColor=none;gradientColor=none;direction=west;" vertex="1" parent="1">
          <mxGeometry x="180" y="330" width="153" height="230" as="geometry" />
        </mxCell>
        <mxCell id="cuTJhUoeL6aTApRvMi6O-115" value="首页" style="whiteSpace=wrap;html=1;fontFamily=京东朗正体;fontSize=12;fontColor=default;fillColor=none;gradientColor=none;" vertex="1" parent="1">
          <mxGeometry x="206.51" y="355" width="100" height="30" as="geometry" />
        </mxCell>
        <mxCell id="cuTJhUoeL6aTApRvMi6O-116" value="权限" style="whiteSpace=wrap;html=1;fontFamily=京东朗正体;fontSize=12;fontColor=default;fillColor=none;gradientColor=none;" vertex="1" parent="1">
          <mxGeometry x="206.5" y="405" width="100" height="30" as="geometry" />
        </mxCell>
        <mxCell id="cuTJhUoeL6aTApRvMi6O-117" value="......" style="whiteSpace=wrap;html=1;fontFamily=京东朗正体;fontSize=12;fontColor=default;fillColor=none;gradientColor=none;" vertex="1" parent="1">
          <mxGeometry x="206.5" y="505" width="100" height="30" as="geometry" />
        </mxCell>
        <mxCell id="cuTJhUoeL6aTApRvMi6O-119" value="登录" style="whiteSpace=wrap;html=1;fontFamily=京东朗正体;fontSize=12;fontColor=default;fillColor=none;gradientColor=none;" vertex="1" parent="1">
          <mxGeometry x="206.4999999999999" y="455" width="100" height="30" as="geometry" />
        </mxCell>
        <mxCell id="cuTJhUoeL6aTApRvMi6O-120" value="脚手架" style="whiteSpace=wrap;html=1;fontFamily=京东朗正体;fontSize=12;fontColor=default;fillColor=none;gradientColor=none;" vertex="1" parent="1">
          <mxGeometry x="179.9999999999999" y="600" width="100" height="40" as="geometry" />
        </mxCell>
        <mxCell id="cuTJhUoeL6aTApRvMi6O-121" value="微前端" style="whiteSpace=wrap;html=1;fontFamily=京东朗正体;fontSize=12;fontColor=default;fillColor=none;gradientColor=none;" vertex="1" parent="1">
          <mxGeometry x="302.3799999999999" y="600" width="100" height="40" as="geometry" />
        </mxCell>
        <mxCell id="cuTJhUoeL6aTApRvMi6O-122" value="Webpack" style="whiteSpace=wrap;html=1;fontFamily=京东朗正体;fontSize=12;fontColor=default;fillColor=none;gradientColor=none;" vertex="1" parent="1">
          <mxGeometry x="422.9999999999999" y="600" width="100" height="40" as="geometry" />
        </mxCell>
        <mxCell id="cuTJhUoeL6aTApRvMi6O-123" value="Npm" style="whiteSpace=wrap;html=1;fontFamily=京东朗正体;fontSize=12;fontColor=default;fillColor=none;gradientColor=none;" vertex="1" parent="1">
          <mxGeometry x="543.9999999999999" y="600" width="100" height="40" as="geometry" />
        </mxCell>
        <mxCell id="cuTJhUoeL6aTApRvMi6O-126" value="规范化 (ESLint等)" style="whiteSpace=wrap;html=1;fontFamily=京东朗正体;fontSize=12;fontColor=default;fillColor=none;gradientColor=none;" vertex="1" parent="1">
          <mxGeometry x="670.5" y="600" width="139.5" height="40" as="geometry" />
        </mxCell>
        <mxCell id="cuTJhUoeL6aTApRvMi6O-127" value="JDOS" style="whiteSpace=wrap;html=1;fontFamily=京东朗正体;fontSize=12;fontColor=default;fillColor=none;gradientColor=none;" vertex="1" parent="1">
          <mxGeometry x="830" y="600" width="100" height="40" as="geometry" />
        </mxCell>
        <mxCell id="cuTJhUoeL6aTApRvMi6O-158" style="edgeStyle=orthogonalEdgeStyle;rounded=0;orthogonalLoop=1;jettySize=auto;html=1;exitX=1;exitY=0.5;exitDx=0;exitDy=0;entryX=0;entryY=0.5;entryDx=0;entryDy=0;fontSize=14;fontColor=#FFFFFF;" edge="1" parent="1" source="cuTJhUoeL6aTApRvMi6O-132" target="cuTJhUoeL6aTApRvMi6O-135">
          <mxGeometry relative="1" as="geometry" />
        </mxCell>
        <mxCell id="cuTJhUoeL6aTApRvMi6O-159" style="edgeStyle=orthogonalEdgeStyle;rounded=0;orthogonalLoop=1;jettySize=auto;html=1;exitX=1;exitY=0.5;exitDx=0;exitDy=0;entryX=0;entryY=0.5;entryDx=0;entryDy=0;fontSize=14;fontColor=#FFFFFF;" edge="1" parent="1" source="cuTJhUoeL6aTApRvMi6O-132" target="cuTJhUoeL6aTApRvMi6O-136">
          <mxGeometry relative="1" as="geometry" />
        </mxCell>
        <mxCell id="cuTJhUoeL6aTApRvMi6O-160" style="edgeStyle=orthogonalEdgeStyle;rounded=0;orthogonalLoop=1;jettySize=auto;html=1;exitX=1;exitY=0.5;exitDx=0;exitDy=0;entryX=0;entryY=0.5;entryDx=0;entryDy=0;fontSize=14;fontColor=#FFFFFF;" edge="1" parent="1" source="cuTJhUoeL6aTApRvMi6O-132" target="cuTJhUoeL6aTApRvMi6O-137">
          <mxGeometry relative="1" as="geometry" />
        </mxCell>
        <mxCell id="cuTJhUoeL6aTApRvMi6O-132" value="隐私合规扫描&lt;br style=&quot;font-size: 14px;&quot;&gt;（前端入口）" style="whiteSpace=wrap;html=1;fontFamily=京东朗正体;fontStyle=0;fillColor=#fa6800;strokeColor=#C73500;fontColor=#FFFFFF;fontSize=14;" vertex="1" parent="1">
          <mxGeometry x="193.93" y="1170" width="96.07" height="40" as="geometry" />
        </mxCell>
        <mxCell id="cuTJhUoeL6aTApRvMi6O-152" style="edgeStyle=orthogonalEdgeStyle;rounded=0;orthogonalLoop=1;jettySize=auto;html=1;exitX=1;exitY=0.5;exitDx=0;exitDy=0;entryX=0;entryY=0.5;entryDx=0;entryDy=0;fontSize=14;fontColor=#FFFFFF;" edge="1" parent="1" source="cuTJhUoeL6aTApRvMi6O-135" target="cuTJhUoeL6aTApRvMi6O-139">
          <mxGeometry relative="1" as="geometry" />
        </mxCell>
        <mxCell id="cuTJhUoeL6aTApRvMi6O-135" value="主动扫描" style="whiteSpace=wrap;html=1;fontFamily=京东朗正体;fontStyle=0;fillColor=#f0a30a;strokeColor=#BD7000;fontColor=#000000;fontSize=14;" vertex="1" parent="1">
          <mxGeometry x="362.93" y="1170" width="100" height="40" as="geometry" />
        </mxCell>
        <mxCell id="cuTJhUoeL6aTApRvMi6O-153" style="edgeStyle=orthogonalEdgeStyle;rounded=0;orthogonalLoop=1;jettySize=auto;html=1;exitX=1;exitY=0.5;exitDx=0;exitDy=0;entryX=0;entryY=0.5;entryDx=0;entryDy=0;fontSize=14;fontColor=#FFFFFF;" edge="1" parent="1" source="cuTJhUoeL6aTApRvMi6O-136" target="cuTJhUoeL6aTApRvMi6O-139">
          <mxGeometry relative="1" as="geometry" />
        </mxCell>
        <mxCell id="cuTJhUoeL6aTApRvMi6O-136" value="被动扫描" style="whiteSpace=wrap;html=1;fontFamily=京东朗正体;fontStyle=0;fillColor=#f0a30a;strokeColor=#BD7000;fontColor=#000000;fontSize=14;" vertex="1" parent="1">
          <mxGeometry x="362.93" y="1230" width="100" height="40" as="geometry" />
        </mxCell>
        <mxCell id="cuTJhUoeL6aTApRvMi6O-137" value="权限控制" style="whiteSpace=wrap;html=1;fontFamily=京东朗正体;fontStyle=0;fillColor=#f0a30a;strokeColor=#BD7000;fontColor=#000000;fontSize=14;" vertex="1" parent="1">
          <mxGeometry x="362.93" y="1110" width="100" height="40" as="geometry" />
        </mxCell>
        <mxCell id="cuTJhUoeL6aTApRvMi6O-138" value="扫描历史" style="whiteSpace=wrap;html=1;fontFamily=京东朗正体;fontStyle=0;fillColor=#f0a30a;strokeColor=#BD7000;fontColor=#000000;fontSize=14;" vertex="1" parent="1">
          <mxGeometry x="362.93" y="1050" width="100" height="40" as="geometry" />
        </mxCell>
        <mxCell id="cuTJhUoeL6aTApRvMi6O-154" style="edgeStyle=orthogonalEdgeStyle;rounded=0;orthogonalLoop=1;jettySize=auto;html=1;exitX=1;exitY=0.5;exitDx=0;exitDy=0;entryX=0;entryY=0.5;entryDx=0;entryDy=0;fontSize=14;fontColor=#FFFFFF;" edge="1" parent="1" source="cuTJhUoeL6aTApRvMi6O-139" target="cuTJhUoeL6aTApRvMi6O-140">
          <mxGeometry relative="1" as="geometry" />
        </mxCell>
        <mxCell id="cuTJhUoeL6aTApRvMi6O-139" value="参数校验" style="whiteSpace=wrap;html=1;fontFamily=京东朗正体;fontStyle=0;fillColor=#fa6800;strokeColor=#C73500;fontColor=#FFFFFF;fontSize=14;" vertex="1" parent="1">
          <mxGeometry x="517.93" y="1170" width="100" height="40" as="geometry" />
        </mxCell>
        <mxCell id="cuTJhUoeL6aTApRvMi6O-155" style="edgeStyle=orthogonalEdgeStyle;rounded=0;orthogonalLoop=1;jettySize=auto;html=1;exitX=1;exitY=0.5;exitDx=0;exitDy=0;entryX=0;entryY=0.5;entryDx=0;entryDy=0;fontSize=14;fontColor=#FFFFFF;" edge="1" parent="1" source="cuTJhUoeL6aTApRvMi6O-140" target="cuTJhUoeL6aTApRvMi6O-141">
          <mxGeometry relative="1" as="geometry" />
        </mxCell>
        <mxCell id="cuTJhUoeL6aTApRvMi6O-140" value="下发扫描任务" style="whiteSpace=wrap;html=1;fontFamily=京东朗正体;fontStyle=0;fillColor=#fa6800;strokeColor=#C73500;fontColor=#FFFFFF;fontSize=14;" vertex="1" parent="1">
          <mxGeometry x="641.06" y="1170" width="100" height="40" as="geometry" />
        </mxCell>
        <mxCell id="cuTJhUoeL6aTApRvMi6O-156" style="edgeStyle=orthogonalEdgeStyle;rounded=0;orthogonalLoop=1;jettySize=auto;html=1;exitX=1;exitY=0.5;exitDx=0;exitDy=0;entryX=0;entryY=0.5;entryDx=0;entryDy=0;fontSize=14;fontColor=#FFFFFF;" edge="1" parent="1" source="cuTJhUoeL6aTApRvMi6O-141" target="cuTJhUoeL6aTApRvMi6O-142">
          <mxGeometry relative="1" as="geometry" />
        </mxCell>
        <mxCell id="cuTJhUoeL6aTApRvMi6O-141" value="静态扫描" style="whiteSpace=wrap;html=1;fontFamily=京东朗正体;fontStyle=0;fillColor=#fa6800;strokeColor=#C73500;fontColor=#FFFFFF;fontSize=14;" vertex="1" parent="1">
          <mxGeometry x="764.06" y="1170" width="100" height="40" as="geometry" />
        </mxCell>
        <mxCell id="cuTJhUoeL6aTApRvMi6O-162" style="edgeStyle=orthogonalEdgeStyle;rounded=0;orthogonalLoop=1;jettySize=auto;html=1;exitX=0.5;exitY=1;exitDx=0;exitDy=0;fontSize=14;fontColor=#FFFFFF;" edge="1" parent="1" source="cuTJhUoeL6aTApRvMi6O-142">
          <mxGeometry relative="1" as="geometry">
            <mxPoint x="238" y="1210" as="targetPoint" />
            <Array as="points">
              <mxPoint x="944" y="1290" />
              <mxPoint x="238" y="1290" />
            </Array>
          </mxGeometry>
        </mxCell>
        <mxCell id="cuTJhUoeL6aTApRvMi6O-142" value="结果邮件通知" style="whiteSpace=wrap;html=1;fontFamily=京东朗正体;fontStyle=0;fillColor=#fa6800;strokeColor=#C73500;fontColor=#FFFFFF;fontSize=14;" vertex="1" parent="1">
          <mxGeometry x="894.06" y="1170" width="100" height="40" as="geometry" />
        </mxCell>
        <mxCell id="cuTJhUoeL6aTApRvMi6O-163" value="服务端接口" style="text;html=1;align=center;verticalAlign=middle;resizable=0;points=[];autosize=1;strokeColor=none;fillColor=none;fontSize=14;fontColor=#000000;" vertex="1" parent="1">
          <mxGeometry x="647.93" y="1140" width="90" height="20" as="geometry" />
        </mxCell>
        <mxCell id="cuTJhUoeL6aTApRvMi6O-164" value="Jenkins工具" style="text;html=1;align=center;verticalAlign=middle;resizable=0;points=[];autosize=1;strokeColor=none;fillColor=none;fontSize=14;fontColor=#000000;" vertex="1" parent="1">
          <mxGeometry x="767.8" y="1140" width="90" height="20" as="geometry" />
        </mxCell>
        <mxCell id="cuTJhUoeL6aTApRvMi6O-166" value="需求流程图" style="whiteSpace=wrap;html=1;fontFamily=京东朗正体;fontStyle=0;fontSize=14;" vertex="1" parent="1">
          <mxGeometry x="533.9699999999999" y="1000" width="152.07" height="40" as="geometry" />
        </mxCell>
        <mxCell id="cuTJhUoeL6aTApRvMi6O-168" style="edgeStyle=orthogonalEdgeStyle;rounded=0;orthogonalLoop=1;jettySize=auto;html=1;exitX=1;exitY=0.5;exitDx=0;exitDy=0;fontSize=14;fontColor=#FFFFFF;entryX=0;entryY=0.5;entryDx=0;entryDy=0;" edge="1" parent="1" source="cuTJhUoeL6aTApRvMi6O-132" target="cuTJhUoeL6aTApRvMi6O-138">
          <mxGeometry relative="1" as="geometry">
            <mxPoint x="217.07000000000022" y="1110" as="sourcePoint" />
            <mxPoint x="300" y="1060" as="targetPoint" />
          </mxGeometry>
        </mxCell>
        <mxCell id="cuTJhUoeL6aTApRvMi6O-174" value="接入应用" style="whiteSpace=wrap;html=1;fontFamily=京东朗正体;fontStyle=0;fontSize=14;fillColor=#b82d2d;strokeColor=#C73500;fontColor=#FFFFFF;gradientColor=none;" vertex="1" parent="1">
          <mxGeometry x="344.71" y="2230" width="150" height="40" as="geometry" />
        </mxCell>
        <mxCell id="cuTJhUoeL6aTApRvMi6O-181" value="" style="verticalLabelPosition=bottom;verticalAlign=top;html=1;shape=mxgraph.basic.rect;fillColor2=none;strokeWidth=1;size=20;indent=5;fontSize=14;fontStyle=1;fillColor=#eeeeee;strokeColor=#FF9933;" vertex="1" parent="1">
          <mxGeometry x="234.59" y="1930" width="370.25" height="100" as="geometry" />
        </mxCell>
        <mxCell id="cuTJhUoeL6aTApRvMi6O-183" value="数据清洗" style="whiteSpace=wrap;html=1;fontFamily=京东朗正体;fontStyle=0;fontSize=14;fillColor=#d18984;fontColor=#FFFFFF;strokeColor=#BD7000;" vertex="1" parent="1">
          <mxGeometry x="250.21" y="1950" width="94.5" height="30" as="geometry" />
        </mxCell>
        <mxCell id="cuTJhUoeL6aTApRvMi6O-184" value="数据提取" style="whiteSpace=wrap;html=1;fontFamily=京东朗正体;fontStyle=0;fontSize=14;fillColor=#d18984;fontColor=#FFFFFF;strokeColor=#BD7000;" vertex="1" parent="1">
          <mxGeometry x="370.39" y="1950" width="94.5" height="30" as="geometry" />
        </mxCell>
        <mxCell id="cuTJhUoeL6aTApRvMi6O-186" value="数据评估" style="whiteSpace=wrap;html=1;fontFamily=京东朗正体;fontStyle=0;fontSize=14;fillColor=#d18984;fontColor=#FFFFFF;strokeColor=#BD7000;" vertex="1" parent="1">
          <mxGeometry x="485.71" y="1950" width="94.5" height="30" as="geometry" />
        </mxCell>
        <mxCell id="cuTJhUoeL6aTApRvMi6O-187" value="数据整合" style="whiteSpace=wrap;html=1;fontFamily=京东朗正体;fontStyle=0;fontSize=14;fillColor=#d18984;fontColor=#FFFFFF;strokeColor=#BD7000;" vertex="1" parent="1">
          <mxGeometry x="316.71" y="1990" width="94.5" height="30" as="geometry" />
        </mxCell>
        <mxCell id="cuTJhUoeL6aTApRvMi6O-188" value="分析处理" style="whiteSpace=wrap;html=1;fontFamily=京东朗正体;fontStyle=0;fontSize=14;fillColor=#d18984;fontColor=#FFFFFF;strokeColor=#BD7000;" vertex="1" parent="1">
          <mxGeometry x="433.21" y="1990" width="94.5" height="30" as="geometry" />
        </mxCell>
        <mxCell id="cuTJhUoeL6aTApRvMi6O-210" value="数据加工" style="verticalLabelPosition=middle;verticalAlign=middle;shape=mxgraph.basic.rect;fillColor2=none;strokeWidth=1;size=20;indent=5;fontSize=14;fontStyle=1;fillColor=#FF9933;strokeColor=#FF9933;align=center;labelPosition=center;fontColor=#FFFFFF;" vertex="1" parent="1">
          <mxGeometry x="234.59" y="1910" width="370.25" height="30" as="geometry" />
        </mxCell>
        <mxCell id="cuTJhUoeL6aTApRvMi6O-215" value="" style="verticalLabelPosition=bottom;verticalAlign=top;html=1;shape=mxgraph.basic.rect;fillColor2=none;strokeWidth=1;size=20;indent=5;fontSize=14;fontStyle=1;fillColor=#eeeeee;strokeColor=#5198D5;" vertex="1" parent="1">
          <mxGeometry x="232.52" y="2120" width="370.25" height="50" as="geometry" />
        </mxCell>
        <mxCell id="cuTJhUoeL6aTApRvMi6O-216" value="数据上报" style="whiteSpace=wrap;html=1;fontFamily=京东朗正体;fontStyle=0;fontSize=14;fillColor=#d18984;fontColor=#FFFFFF;strokeColor=#BD7000;" vertex="1" parent="1">
          <mxGeometry x="250.21" y="2130" width="94.5" height="30" as="geometry" />
        </mxCell>
        <mxCell id="cuTJhUoeL6aTApRvMi6O-218" value="&lt;span&gt;Android Sdk&lt;/span&gt;" style="whiteSpace=wrap;html=1;fontFamily=京东朗正体;fontStyle=0;fontSize=14;fillColor=#d18984;fontColor=#FFFFFF;strokeColor=#BD7000;" vertex="1" parent="1">
          <mxGeometry x="358.04999999999995" y="2130" width="119.18" height="30" as="geometry" />
        </mxCell>
        <mxCell id="cuTJhUoeL6aTApRvMi6O-221" value="数据获取" style="verticalLabelPosition=middle;verticalAlign=middle;shape=mxgraph.basic.rect;fillColor2=none;strokeWidth=1;size=20;indent=5;fontSize=14;fontStyle=1;fillColor=#5198d5;strokeColor=#5198D5;align=center;labelPosition=center;fontColor=#FFFFFF;" vertex="1" parent="1">
          <mxGeometry x="232.52" y="2090" width="370.25" height="30" as="geometry" />
        </mxCell>
        <mxCell id="cuTJhUoeL6aTApRvMi6O-223" value="iOS Sdk" style="whiteSpace=wrap;html=1;fontFamily=京东朗正体;fontStyle=0;fontSize=14;fillColor=#d18984;fontColor=#FFFFFF;strokeColor=#BD7000;" vertex="1" parent="1">
          <mxGeometry x="488.96" y="2130" width="96.81" height="30" as="geometry" />
        </mxCell>
        <mxCell id="cuTJhUoeL6aTApRvMi6O-231" value="" style="verticalLabelPosition=bottom;verticalAlign=top;html=1;shape=mxgraph.basic.rect;fillColor2=none;strokeWidth=1;size=20;indent=5;fontSize=14;fontStyle=1;fillColor=#eeeeee;strokeColor=#6600CC;" vertex="1" parent="1">
          <mxGeometry x="233.56" y="1700" width="370.25" height="150" as="geometry" />
        </mxCell>
        <mxCell id="cuTJhUoeL6aTApRvMi6O-232" value="数据概览" style="whiteSpace=wrap;html=1;fontFamily=京东朗正体;fontStyle=0;fontSize=14;fillColor=#d18984;fontColor=#FFFFFF;strokeColor=#BD7000;" vertex="1" parent="1">
          <mxGeometry x="251.25" y="1710" width="94.5" height="30" as="geometry" />
        </mxCell>
        <mxCell id="cuTJhUoeL6aTApRvMi6O-233" value="用户分析" style="whiteSpace=wrap;html=1;fontFamily=京东朗正体;fontStyle=0;fontSize=14;fillColor=#d18984;fontColor=#FFFFFF;strokeColor=#BD7000;" vertex="1" parent="1">
          <mxGeometry x="371.43" y="1710" width="94.5" height="30" as="geometry" />
        </mxCell>
        <mxCell id="cuTJhUoeL6aTApRvMi6O-234" value="留存分析" style="whiteSpace=wrap;html=1;fontFamily=京东朗正体;fontStyle=0;fontSize=14;fillColor=#d18984;fontColor=#FFFFFF;strokeColor=#BD7000;" vertex="1" parent="1">
          <mxGeometry x="486.75" y="1710" width="94.5" height="30" as="geometry" />
        </mxCell>
        <mxCell id="cuTJhUoeL6aTApRvMi6O-236" value="版本分析" style="whiteSpace=wrap;html=1;fontFamily=京东朗正体;fontStyle=0;fontSize=14;fillColor=#d18984;fontColor=#FFFFFF;strokeColor=#BD7000;" vertex="1" parent="1">
          <mxGeometry x="371.43" y="1760" width="94.5" height="30" as="geometry" />
        </mxCell>
        <mxCell id="cuTJhUoeL6aTApRvMi6O-237" value="数据可视化" style="verticalLabelPosition=middle;verticalAlign=middle;shape=mxgraph.basic.rect;fillColor2=none;strokeWidth=1;size=20;indent=5;fontSize=14;fontStyle=1;fillColor=#6600CC;strokeColor=#6600CC;align=center;labelPosition=center;fontColor=#FFFFFF;" vertex="1" parent="1">
          <mxGeometry x="233.56" y="1670" width="370.25" height="30" as="geometry" />
        </mxCell>
        <mxCell id="cuTJhUoeL6aTApRvMi6O-238" value="渠道分析" style="whiteSpace=wrap;html=1;fontFamily=京东朗正体;fontStyle=0;fontSize=14;fillColor=#d18984;fontColor=#FFFFFF;strokeColor=#BD7000;" vertex="1" parent="1">
          <mxGeometry x="251.25" y="1760" width="94.5" height="30" as="geometry" />
        </mxCell>
        <mxCell id="cuTJhUoeL6aTApRvMi6O-239" value="用户挖掘" style="whiteSpace=wrap;html=1;fontFamily=京东朗正体;fontStyle=0;fontSize=14;fillColor=#d18984;fontColor=#FFFFFF;strokeColor=#BD7000;" vertex="1" parent="1">
          <mxGeometry x="251.25" y="1810" width="94.5" height="30" as="geometry" />
        </mxCell>
        <mxCell id="cuTJhUoeL6aTApRvMi6O-240" value="行为分析" style="whiteSpace=wrap;html=1;fontFamily=京东朗正体;fontStyle=0;fontSize=14;fillColor=#d18984;fontColor=#FFFFFF;strokeColor=#BD7000;" vertex="1" parent="1">
          <mxGeometry x="486.75" y="1760" width="94.5" height="30" as="geometry" />
        </mxCell>
        <mxCell id="cuTJhUoeL6aTApRvMi6O-242" value="数据导出" style="whiteSpace=wrap;html=1;fontFamily=京东朗正体;fontStyle=0;fontSize=14;fillColor=#d18984;fontColor=#FFFFFF;strokeColor=#BD7000;" vertex="1" parent="1">
          <mxGeometry x="373.27" y="1810" width="90.82" height="30" as="geometry" />
        </mxCell>
        <mxCell id="cuTJhUoeL6aTApRvMi6O-247" value="" style="shape=singleArrow;direction=north;whiteSpace=wrap;html=1;fontSize=7;fontColor=#FFFFFF;strokeColor=#6600CC;fillColor=#b82d2d;gradientColor=none;" vertex="1" parent="1">
          <mxGeometry x="409.71" y="2180" width="20" height="40" as="geometry" />
        </mxCell>
        <mxCell id="cuTJhUoeL6aTApRvMi6O-248" value="" style="shape=singleArrow;direction=north;whiteSpace=wrap;html=1;fontSize=7;fontColor=#FFFFFF;strokeColor=#6600CC;fillColor=#b82d2d;gradientColor=none;" vertex="1" parent="1">
          <mxGeometry x="409.71" y="2040" width="20" height="40" as="geometry" />
        </mxCell>
        <mxCell id="cuTJhUoeL6aTApRvMi6O-249" value="" style="shape=singleArrow;direction=north;whiteSpace=wrap;html=1;fontSize=7;fontColor=#FFFFFF;strokeColor=#6600CC;fillColor=#b82d2d;gradientColor=none;" vertex="1" parent="1">
          <mxGeometry x="408.68" y="1860" width="20" height="40" as="geometry" />
        </mxCell>
        <mxCell id="cuTJhUoeL6aTApRvMi6O-304" style="edgeStyle=orthogonalEdgeStyle;rounded=0;orthogonalLoop=1;jettySize=auto;html=1;exitX=0.5;exitY=1;exitDx=0;exitDy=0;exitPerimeter=0;entryX=0.5;entryY=0;entryDx=0;entryDy=0;entryPerimeter=0;fontSize=12;fontColor=#FF0000;fontFamily=京东朗正体;" edge="1" parent="1" source="cuTJhUoeL6aTApRvMi6O-251" target="cuTJhUoeL6aTApRvMi6O-276">
          <mxGeometry relative="1" as="geometry" />
        </mxCell>
        <mxCell id="cuTJhUoeL6aTApRvMi6O-251" value="渠道发布" style="strokeWidth=2;html=1;shape=mxgraph.flowchart.terminator;whiteSpace=wrap;fontSize=7;fontFamily=京东朗正体;" vertex="1" parent="1">
          <mxGeometry x="505.01" y="2309" width="92" height="35" as="geometry" />
        </mxCell>
        <mxCell id="cuTJhUoeL6aTApRvMi6O-255" value="数据共享 store" style="verticalLabelPosition=top;verticalAlign=bottom;html=1;shape=mxgraph.basic.rect;fillColor2=none;strokeWidth=1;size=20;indent=5;fontSize=7;labelPosition=center;align=center;fontFamily=京东朗正体;strokeColor=none;" vertex="1" parent="1">
          <mxGeometry x="229.89000000000001" y="2497" width="122" height="41" as="geometry" />
        </mxCell>
        <mxCell id="cuTJhUoeL6aTApRvMi6O-259" value="权限" style="whiteSpace=wrap;html=1;fontFamily=京东朗正体;fontStyle=0;fontSize=12;fillColor=#d18984;fontColor=#FFFFFF;strokeColor=#BD7000;" vertex="1" parent="1">
          <mxGeometry x="244.95000000000002" y="2516" width="35" height="24" as="geometry" />
        </mxCell>
        <mxCell id="cuTJhUoeL6aTApRvMi6O-260" value="应用标识" style="whiteSpace=wrap;html=1;fontFamily=京东朗正体;fontStyle=0;fontSize=12;fillColor=#d18984;fontColor=#FFFFFF;strokeColor=#BD7000;" vertex="1" parent="1">
          <mxGeometry x="287.02" y="2516.5" width="57.06" height="23.5" as="geometry" />
        </mxCell>
        <mxCell id="cuTJhUoeL6aTApRvMi6O-264" value="业务组件 component" style="rounded=0;whiteSpace=wrap;fontSize=12;labelPosition=center;verticalLabelPosition=top;align=center;verticalAlign=bottom;labelBackgroundColor=default;fontFamily=京东朗正体;strokeColor=none;" vertex="1" parent="1">
          <mxGeometry x="388.39" y="2497" width="313" height="114" as="geometry" />
        </mxCell>
        <mxCell id="cuTJhUoeL6aTApRvMi6O-265" value="表格组件" style="whiteSpace=wrap;html=1;fontFamily=京东朗正体;fontStyle=0;fontSize=12;fillColor=#d18984;fontColor=#FFFFFF;strokeColor=#BD7000;" vertex="1" parent="1">
          <mxGeometry x="401.04" y="2516" width="56.63" height="24" as="geometry" />
        </mxCell>
        <mxCell id="cuTJhUoeL6aTApRvMi6O-266" value="上传模块" style="whiteSpace=wrap;html=1;fontFamily=京东朗正体;fontStyle=0;fontSize=12;fillColor=#d18984;fontColor=#FFFFFF;strokeColor=#BD7000;" vertex="1" parent="1">
          <mxGeometry x="471.51" y="2516" width="56.63" height="24" as="geometry" />
        </mxCell>
        <mxCell id="cuTJhUoeL6aTApRvMi6O-267" value="筛选组件" style="whiteSpace=wrap;html=1;fontFamily=京东朗正体;fontStyle=0;fontSize=12;fillColor=#d18984;fontColor=#FFFFFF;strokeColor=#BD7000;" vertex="1" parent="1">
          <mxGeometry x="541.97" y="2516" width="56.63" height="24" as="geometry" />
        </mxCell>
        <mxCell id="cuTJhUoeL6aTApRvMi6O-268" value="无权限组件" style="whiteSpace=wrap;html=1;fontFamily=京东朗正体;fontStyle=0;fontSize=12;fillColor=#d18984;fontColor=#FFFFFF;strokeColor=#BD7000;" vertex="1" parent="1">
          <mxGeometry x="613.39" y="2516" width="73.5" height="24" as="geometry" />
        </mxCell>
        <mxCell id="cuTJhUoeL6aTApRvMi6O-270" value="" style="strokeWidth=2;html=1;shape=mxgraph.flowchart.annotation_2;align=left;labelPosition=right;pointerEvents=1;fontSize=12;fontColor=#FFFFFF;fillColor=#b82d2d;gradientColor=none;direction=north;fontFamily=京东朗正体;" vertex="1" parent="1">
          <mxGeometry x="427.98" y="2546" width="223.5" height="27" as="geometry" />
        </mxCell>
        <mxCell id="cuTJhUoeL6aTApRvMi6O-271" value="基础组件" style="whiteSpace=wrap;html=1;fontFamily=京东朗正体;fontStyle=0;fontSize=12;fillColor=#d18984;fontColor=#FFFFFF;strokeColor=#BD7000;" vertex="1" parent="1">
          <mxGeometry x="511.45000000000005" y="2576" width="56.63" height="24" as="geometry" />
        </mxCell>
        <mxCell id="cuTJhUoeL6aTApRvMi6O-272" value="公共方法 util" style="verticalLabelPosition=top;verticalAlign=bottom;html=1;shape=mxgraph.basic.rect;fillColor2=none;strokeWidth=1;size=20;indent=5;fontSize=7;labelPosition=center;align=center;fontFamily=京东朗正体;strokeColor=none;" vertex="1" parent="1">
          <mxGeometry x="729.46" y="2497" width="136" height="108" as="geometry" />
        </mxCell>
        <mxCell id="cuTJhUoeL6aTApRvMi6O-273" value="时间转换" style="whiteSpace=wrap;html=1;fontFamily=京东朗正体;fontStyle=0;fontSize=12;fillColor=#d18984;fontColor=#FFFFFF;strokeColor=#BD7000;" vertex="1" parent="1">
          <mxGeometry x="737.5000000000001" y="2516" width="59.63" height="24" as="geometry" />
        </mxCell>
        <mxCell id="cuTJhUoeL6aTApRvMi6O-274" value="正则校验" style="whiteSpace=wrap;html=1;fontFamily=京东朗正体;fontStyle=0;fontSize=12;fillColor=#d18984;fontColor=#FFFFFF;strokeColor=#BD7000;" vertex="1" parent="1">
          <mxGeometry x="807.5000000000002" y="2516" width="56.63" height="24" as="geometry" />
        </mxCell>
        <mxCell id="cuTJhUoeL6aTApRvMi6O-275" value="获取图片宽高" style="whiteSpace=wrap;html=1;fontFamily=京东朗正体;fontStyle=0;fontSize=12;fillColor=#d18984;fontColor=#FFFFFF;strokeColor=#BD7000;" vertex="1" parent="1">
          <mxGeometry x="761.65" y="2550.5" width="80.63" height="24" as="geometry" />
        </mxCell>
        <mxCell id="cuTJhUoeL6aTApRvMi6O-276" value="&amp;nbsp; &amp;nbsp;index（入口）" style="strokeWidth=2;html=1;shape=mxgraph.flowchart.terminator;whiteSpace=wrap;fontSize=7;fontFamily=京东朗正体;" vertex="1" parent="1">
          <mxGeometry x="505.64" y="2361" width="90.74" height="35" as="geometry" />
        </mxCell>
        <mxCell id="cuTJhUoeL6aTApRvMi6O-333" style="edgeStyle=orthogonalEdgeStyle;rounded=0;orthogonalLoop=1;jettySize=auto;html=1;exitX=0.5;exitY=1;exitDx=0;exitDy=0;exitPerimeter=0;fontFamily=京东朗正体;fontSize=12;fontColor=#FF0000;" edge="1" parent="1" source="cuTJhUoeL6aTApRvMi6O-280">
          <mxGeometry relative="1" as="geometry">
            <mxPoint x="276.66666666666674" y="2811.6666666666665" as="targetPoint" />
          </mxGeometry>
        </mxCell>
        <mxCell id="cuTJhUoeL6aTApRvMi6O-280" value="基础信息管理" style="strokeWidth=2;html=1;shape=mxgraph.flowchart.terminator;whiteSpace=wrap;fontSize=7;fontFamily=京东朗正体;" vertex="1" parent="1">
          <mxGeometry x="231.13" y="2742" width="90.74" height="35" as="geometry" />
        </mxCell>
        <mxCell id="cuTJhUoeL6aTApRvMi6O-322" style="edgeStyle=orthogonalEdgeStyle;rounded=0;orthogonalLoop=1;jettySize=auto;html=1;exitX=0.5;exitY=1;exitDx=0;exitDy=0;exitPerimeter=0;entryX=0.5;entryY=0;entryDx=0;entryDy=0;fontSize=12;fontColor=#FF0000;fontFamily=京东朗正体;" edge="1" parent="1" source="cuTJhUoeL6aTApRvMi6O-281" target="cuTJhUoeL6aTApRvMi6O-321">
          <mxGeometry relative="1" as="geometry" />
        </mxCell>
        <mxCell id="cuTJhUoeL6aTApRvMi6O-281" value="渠道包管理" style="strokeWidth=2;html=1;shape=mxgraph.flowchart.terminator;whiteSpace=wrap;fontSize=7;fontFamily=京东朗正体;" vertex="1" parent="1">
          <mxGeometry x="376.56" y="2742" width="90.74" height="35" as="geometry" />
        </mxCell>
        <mxCell id="cuTJhUoeL6aTApRvMi6O-323" style="edgeStyle=orthogonalEdgeStyle;rounded=0;orthogonalLoop=1;jettySize=auto;html=1;exitX=0.5;exitY=1;exitDx=0;exitDy=0;exitPerimeter=0;entryX=0.5;entryY=0;entryDx=0;entryDy=0;fontSize=12;fontColor=#FF0000;fontFamily=京东朗正体;" edge="1" parent="1" source="cuTJhUoeL6aTApRvMi6O-282" target="cuTJhUoeL6aTApRvMi6O-321">
          <mxGeometry relative="1" as="geometry" />
        </mxCell>
        <mxCell id="cuTJhUoeL6aTApRvMi6O-282" value="账号管理" style="strokeWidth=2;html=1;shape=mxgraph.flowchart.terminator;whiteSpace=wrap;fontSize=7;fontFamily=京东朗正体;" vertex="1" parent="1">
          <mxGeometry x="515.15" y="2742" width="90.74" height="35" as="geometry" />
        </mxCell>
        <mxCell id="cuTJhUoeL6aTApRvMi6O-324" style="edgeStyle=orthogonalEdgeStyle;rounded=0;orthogonalLoop=1;jettySize=auto;html=1;exitX=0.5;exitY=1;exitDx=0;exitDy=0;exitPerimeter=0;entryX=0.5;entryY=0;entryDx=0;entryDy=0;fontSize=12;fontColor=#FF0000;fontFamily=京东朗正体;" edge="1" parent="1" source="cuTJhUoeL6aTApRvMi6O-283" target="cuTJhUoeL6aTApRvMi6O-321">
          <mxGeometry relative="1" as="geometry" />
        </mxCell>
        <mxCell id="cuTJhUoeL6aTApRvMi6O-283" value="上传管理" style="strokeWidth=2;html=1;shape=mxgraph.flowchart.terminator;whiteSpace=wrap;fontSize=7;fontFamily=京东朗正体;" vertex="1" parent="1">
          <mxGeometry x="667.72" y="2742" width="90.74" height="35" as="geometry" />
        </mxCell>
        <mxCell id="cuTJhUoeL6aTApRvMi6O-284" value="权限管理" style="strokeWidth=2;html=1;shape=mxgraph.flowchart.terminator;whiteSpace=wrap;fontSize=7;fontFamily=京东朗正体;" vertex="1" parent="1">
          <mxGeometry x="806" y="2742" width="90.74" height="35" as="geometry" />
        </mxCell>
        <mxCell id="cuTJhUoeL6aTApRvMi6O-285" value="vivo应用市场" style="strokeWidth=2;html=1;shape=mxgraph.flowchart.terminator;whiteSpace=wrap;fontSize=7;fontFamily=京东朗正体;" vertex="1" parent="1">
          <mxGeometry x="150" y="3233" width="100.49" height="35" as="geometry" />
        </mxCell>
        <mxCell id="cuTJhUoeL6aTApRvMi6O-286" value="oppo应用市场" style="strokeWidth=2;html=1;shape=mxgraph.flowchart.terminator;whiteSpace=wrap;fontSize=7;fontFamily=京东朗正体;" vertex="1" parent="1">
          <mxGeometry x="315.21999999999997" y="3231" width="109.49" height="35" as="geometry" />
        </mxCell>
        <mxCell id="cuTJhUoeL6aTApRvMi6O-287" value="小米应用市场" style="strokeWidth=2;html=1;shape=mxgraph.flowchart.terminator;whiteSpace=wrap;fontSize=7;fontFamily=京东朗正体;" vertex="1" parent="1">
          <mxGeometry x="478.3" y="3233" width="98.7" height="35" as="geometry" />
        </mxCell>
        <mxCell id="cuTJhUoeL6aTApRvMi6O-288" value="华为应用市场" style="strokeWidth=2;html=1;shape=mxgraph.flowchart.terminator;whiteSpace=wrap;fontSize=7;fontFamily=京东朗正体;" vertex="1" parent="1">
          <mxGeometry x="632" y="3231" width="97.94" height="35" as="geometry" />
        </mxCell>
        <mxCell id="cuTJhUoeL6aTApRvMi6O-289" value="&lt;font color=&quot;#ff0000&quot;&gt;拓展渠道&lt;/font&gt;" style="strokeWidth=2;html=1;shape=mxgraph.flowchart.terminator;whiteSpace=wrap;fontSize=7;fontFamily=京东朗正体;" vertex="1" parent="1">
          <mxGeometry x="794.71" y="3231" width="86.61" height="35" as="geometry" />
        </mxCell>
        <mxCell id="cuTJhUoeL6aTApRvMi6O-296" value="" style="rounded=0;whiteSpace=wrap;html=1;labelBackgroundColor=default;fontSize=12;fontFamily=京东朗正体;" vertex="1" parent="1">
          <mxGeometry x="155.75" y="2815" width="244" height="99" as="geometry" />
        </mxCell>
        <mxCell id="cuTJhUoeL6aTApRvMi6O-302" value="&lt;ul&gt;&lt;li&gt;&lt;font color=&quot;#000000&quot; style=&quot;text-align: center&quot;&gt;采用&lt;/font&gt;&lt;span style=&quot;text-align: center&quot;&gt;动态组件&lt;/span&gt;&lt;font color=&quot;#000000&quot; style=&quot;text-align: center&quot;&gt;方式渠道变化展示对应配置&lt;/font&gt;&lt;br&gt;&lt;/li&gt;&lt;li&gt;&lt;font color=&quot;#000000&quot; style=&quot;text-align: center&quot;&gt;父组件统一调用子组件预设方法包括&lt;/font&gt;&lt;br style=&quot;text-align: center&quot;&gt;&lt;span style=&quot;text-align: center&quot;&gt;全局校验&lt;/span&gt;&lt;font color=&quot;#000000&quot; style=&quot;text-align: center&quot;&gt;、&lt;/font&gt;&lt;span style=&quot;text-align: center&quot;&gt;前后端数据转化&lt;/span&gt;&lt;/li&gt;&lt;li&gt;&lt;font color=&quot;#000000&quot; style=&quot;text-align: center&quot;&gt;子组件通过&lt;/font&gt;&lt;font style=&quot;text-align: center&quot;&gt;字段配置化&lt;font color=&quot;#000000&quot;&gt;维护各自&lt;/font&gt;&lt;/font&gt;&lt;font color=&quot;#000000&quot; style=&quot;text-align: center&quot;&gt;视图&lt;/font&gt;&lt;/li&gt;&lt;/ul&gt;" style="text;strokeColor=none;fillColor=none;html=1;whiteSpace=wrap;verticalAlign=middle;overflow=hidden;labelBackgroundColor=none;fontSize=12;fontColor=#FF0000;fontFamily=京东朗正体;" vertex="1" parent="1">
          <mxGeometry x="133.99999999999994" y="2802" width="282" height="125" as="geometry" />
        </mxCell>
        <mxCell id="cuTJhUoeL6aTApRvMi6O-308" value="" style="strokeWidth=2;html=1;shape=mxgraph.flowchart.annotation_2;align=left;labelPosition=right;pointerEvents=1;labelBackgroundColor=none;fontSize=12;fontColor=#FF0000;fillColor=#b82d2d;gradientColor=none;direction=south;fontFamily=京东朗正体;" vertex="1" parent="1">
          <mxGeometry x="200.59" y="3178" width="634.07" height="50" as="geometry" />
        </mxCell>
        <mxCell id="cuTJhUoeL6aTApRvMi6O-321" value="&lt;ul&gt;&lt;li&gt;&lt;font color=&quot;#000000&quot;&gt;操作级别模版、新增、编辑、查看&lt;/font&gt;共用视图层&lt;font color=&quot;#000000&quot;&gt;(View）&lt;/font&gt;&lt;/li&gt;&lt;li&gt;&lt;font color=&quot;#000000&quot;&gt;采用&lt;/font&gt;数据拼接&lt;font color=&quot;#000000&quot;&gt;的方式动态生成数据列，降低冗余代码&lt;br&gt;&lt;br&gt;&lt;/font&gt;&lt;/li&gt;&lt;/ul&gt;" style="text;strokeColor=none;fillColor=none;html=1;whiteSpace=wrap;verticalAlign=middle;overflow=hidden;labelBackgroundColor=none;fontSize=12;fontColor=#FF0000;fontFamily=京东朗正体;" vertex="1" parent="1">
          <mxGeometry x="542" y="2832" width="342" height="55" as="geometry" />
        </mxCell>
        <mxCell id="cuTJhUoeL6aTApRvMi6O-326" value="" style="rounded=0;whiteSpace=wrap;html=1;labelBackgroundColor=none;fontSize=12;fillColor=none;fontFamily=京东朗正体;" vertex="1" parent="1">
          <mxGeometry x="553.36" y="2832" width="322" height="55" as="geometry" />
        </mxCell>
        <mxCell id="cuTJhUoeL6aTApRvMi6O-339" value="基础中间层" style="text;html=1;strokeColor=none;fillColor=none;align=center;verticalAlign=middle;whiteSpace=wrap;rounded=0;labelBackgroundColor=none;fontFamily=京东朗正体;fontSize=14;fontColor=#000000;" vertex="1" parent="1">
          <mxGeometry x="497.93" y="2622" width="87" height="30" as="geometry" />
        </mxCell>
        <mxCell id="cuTJhUoeL6aTApRvMi6O-341" value="" style="rounded=0;whiteSpace=wrap;html=1;labelBackgroundColor=none;fontFamily=京东朗正体;fontSize=14;fontColor=#000000;strokeColor=#FF0000;fillColor=none;gradientColor=none;" vertex="1" parent="1">
          <mxGeometry x="213.46" y="2470" width="679" height="185" as="geometry" />
        </mxCell>
        <mxCell id="cuTJhUoeL6aTApRvMi6O-347" value="" style="html=1;shadow=0;dashed=0;align=center;verticalAlign=middle;shape=mxgraph.arrows2.arrow;dy=0.6;dx=25.87;direction=south;notch=0;labelBackgroundColor=none;fontFamily=京东朗正体;fontSize=14;fontColor=#000000;strokeColor=#FF0000;fillColor=none;gradientColor=none;" vertex="1" parent="1">
          <mxGeometry x="544.52" y="2673" width="27.48" height="52" as="geometry" />
        </mxCell>
        <mxCell id="cuTJhUoeL6aTApRvMi6O-350" value="" style="html=1;shadow=0;dashed=0;align=center;verticalAlign=middle;shape=mxgraph.arrows2.arrow;dy=0.6;dx=25.87;direction=south;notch=0;labelBackgroundColor=none;fontFamily=京东朗正体;fontSize=14;fontColor=#000000;strokeColor=#FF0000;fillColor=none;gradientColor=none;" vertex="1" parent="1">
          <mxGeometry x="541.0400000000001" y="2409" width="27.04" height="48" as="geometry" />
        </mxCell>
        <mxCell id="cuTJhUoeL6aTApRvMi6O-351" value="" style="html=1;shadow=0;dashed=0;align=center;verticalAlign=middle;shape=mxgraph.arrows2.arrow;dy=0.6;dx=25.87;direction=south;notch=0;labelBackgroundColor=none;fontFamily=京东朗正体;fontSize=14;fontColor=#000000;strokeColor=#FF0000;fillColor=none;gradientColor=none;" vertex="1" parent="1">
          <mxGeometry x="699.26" y="2673" width="27.48" height="52" as="geometry" />
        </mxCell>
        <mxCell id="cuTJhUoeL6aTApRvMi6O-352" value="" style="html=1;shadow=0;dashed=0;align=center;verticalAlign=middle;shape=mxgraph.arrows2.arrow;dy=0.6;dx=25.87;direction=south;notch=0;labelBackgroundColor=none;fontFamily=京东朗正体;fontSize=14;fontColor=#000000;strokeColor=#FF0000;fillColor=none;gradientColor=none;" vertex="1" parent="1">
          <mxGeometry x="837.98" y="2671" width="27.48" height="52" as="geometry" />
        </mxCell>
        <mxCell id="cuTJhUoeL6aTApRvMi6O-353" value="" style="html=1;shadow=0;dashed=0;align=center;verticalAlign=middle;shape=mxgraph.arrows2.arrow;dy=0.6;dx=25.87;direction=south;notch=0;labelBackgroundColor=none;fontFamily=京东朗正体;fontSize=14;fontColor=#000000;strokeColor=#FF0000;fillColor=none;gradientColor=none;" vertex="1" parent="1">
          <mxGeometry x="406.5" y="2673" width="27.48" height="52" as="geometry" />
        </mxCell>
        <mxCell id="cuTJhUoeL6aTApRvMi6O-354" value="" style="html=1;shadow=0;dashed=0;align=center;verticalAlign=middle;shape=mxgraph.arrows2.arrow;dy=0.6;dx=25.87;direction=south;notch=0;labelBackgroundColor=none;fontFamily=京东朗正体;fontSize=14;fontColor=#000000;strokeColor=#FF0000;fillColor=none;gradientColor=none;" vertex="1" parent="1">
          <mxGeometry x="264" y="2673" width="27.48" height="52" as="geometry" />
        </mxCell>
      </root>
    </mxGraphModel>
  </diagram>
</mxfile>
